<svg xmlns="http://www.w3.org/2000/svg" viewBox="0 0 100 100"><defs><style>.cls-1{fill:#009a82;}</style></defs><g id="Layer_2" data-name="Layer 2"><g id="Layer_1-2" data-name="Layer 1"><path class="cls-1" d="M50,0a50,50,0,1,0,50,50A50.06,50.06,0,0,0,50,0ZM17.18,14.27,19,16.12a.81.81,0,0,0,.53.24.58.58,0,0,0,.49-.19.71.71,0,0,0,0-1l-1.75-1.8A52,52,0,0,1,26,7.86l5.49,5.64a.79.79,0,0,0,.53.24.57.57,0,0,0,.49-.2.71.71,0,0,0,0-1l-5.2-5.34A48,48,0,0,1,36.65,3.4l2.09,2.13a.76.76,0,0,0,.53.25.56.56,0,0,0,.49-.2.71.71,0,0,0,0-1L38.25,2.91A50.7,50.7,0,0,1,49.9,1.46l8.5,8.73a.76.76,0,0,0,.53.25.56.56,0,0,0,.49-.2.71.71,0,0,0,0-1L52,1.5a48.45,48.45,0,0,1,16.6,3.65l11.6,11.94a.81.81,0,0,0,.54.24.56.56,0,0,0,.48-.19.71.71,0,0,0,0-1L72.33,6.89a48.71,48.71,0,0,1,21.31,21.9l-9.08-9.32a.69.69,0,0,0-1,0,.71.71,0,0,0,0,1l11.75,12a48.78,48.78,0,0,1,3.25,16.7l-4.66-4.75a.69.69,0,0,0-1,0,.71.71,0,0,0,0,1l5.68,5.82c0,.78,0,1.51-.09,2.28a50.45,50.45,0,0,0-23.35-13l-2.43-2.47a.72.72,0,1,0-1,1l.87,1a49.38,49.38,0,0,0-9-.78h-.1c-1.51,0-3,0-4.52.15l-3-3.06a.72.72,0,0,0-1,1l2.19,2.23a49.4,49.4,0,0,0-20.73,7.57L32.28,43a.72.72,0,1,0-1,1l3.93,4a49.26,49.26,0,0,0-7.18,6l-7.14-7.14a.72.72,0,0,0-1,1l7,7.14a51.43,51.43,0,0,0-5.77,7.47l-3.79-3.88a.72.72,0,0,0-1,1l4.08,4.17A46.4,46.4,0,0,0,16.17,73l-2.58-2.62a.72.72,0,1,0-1,1l3.11,3.2a51.42,51.42,0,0,0-1.75,7.87,48.68,48.68,0,0,1-11-21l4.37,4.46a.78.78,0,0,0,.54.25A.55.55,0,0,0,8.3,66a.71.71,0,0,0,0-1L2.23,58.69A51.81,51.81,0,0,1,1.46,50a44.4,44.4,0,0,1,.29-5.19l4.61,4.75a.76.76,0,0,0,.53.25.56.56,0,0,0,.49-.2.71.71,0,0,0,0-1L2,43A47.87,47.87,0,0,1,4.76,32.43l4.37,4.46a.76.76,0,0,0,.53.25.57.57,0,0,0,.49-.2.71.71,0,0,0,0-1L5.34,31a49.89,49.89,0,0,1,4.71-8.54L13.59,26a.77.77,0,0,0,.54.24.57.57,0,0,0,.48-.19.71.71,0,0,0,0-1l-3.69-3.79A45.94,45.94,0,0,1,17.18,14.27ZM50,98.54a48.25,48.25,0,0,1-34.9-14.8,48.58,48.58,0,0,1,48.25-43h.1A48,48,0,0,1,98.2,55.49,48.51,48.51,0,0,1,50,98.54ZM13.45,54.76a.71.71,0,0,1,0,1A.73.73,0,0,1,13,56a.79.79,0,0,1-.53-.24l-1.51-1.56a.72.72,0,0,1,1-1Zm1.11-14.37,2.92,3a.71.71,0,0,1,0,1,.73.73,0,0,1-.49.19.75.75,0,0,1-.53-.24l-2.92-3a.71.71,0,0,1,0-1A.76.76,0,0,1,14.56,40.39Zm5.15-8.06a.77.77,0,0,1,0-1.07.71.71,0,0,1,1,0L25,35.58a.71.71,0,0,1,0,1,.67.67,0,0,1-.48.2.78.78,0,0,1-.54-.25ZM41.41,37l.87.87a.71.71,0,0,1,0,1,.67.67,0,0,1-.48.2.78.78,0,0,1-.54-.25L40.39,38a.71.71,0,0,1,0-1A.76.76,0,0,1,41.41,37ZM23.16,20.53a.72.72,0,0,1,1-1L37.62,33.2a.71.71,0,0,1-.53,1.22.73.73,0,0,1-.54-.2ZM52.23,32.67a.7.7,0,0,1-.48,1.21.77.77,0,0,1-.54-.24L50,32.43a.72.72,0,0,1,1-1Zm-6.36-6.5,1.07,1.11a.71.71,0,0,1,0,1,.67.67,0,0,1-.48.2.78.78,0,0,1-.54-.25l-1.07-1.07a.72.72,0,0,1,1-1Zm-11-9.23a.72.72,0,1,1,1-1l5.88,6a.71.71,0,0,1,0,1,.69.69,0,0,1-.49.2.76.76,0,0,1-.53-.25ZM69.22,34.66a.71.71,0,0,1,0,1,.66.66,0,0,1-.48.19.77.77,0,0,1-.54-.24l-3.93-4a.72.72,0,1,1,1-1ZM49.76,16.75a.72.72,0,1,1,1-1L61.8,27a.71.71,0,0,1,0,1,.73.73,0,0,1-.49.19.75.75,0,0,1-.53-.24Zm-6.7-6.9a.72.72,0,0,1,1-1l1.41,1.46a.71.71,0,0,1,0,1,.68.68,0,0,1-.49.19.75.75,0,0,1-.53-.24ZM83.35,35.73a.72.72,0,0,1,1-1l5,5.14a.71.71,0,0,1,0,1,.69.69,0,0,1-.49.2.79.79,0,0,1-.53-.24ZM63.93,15.83a.71.71,0,0,1,0-1,.69.69,0,0,1,1,0l15.2,15.58a.71.71,0,0,1,0,1,.73.73,0,0,1-.49.19.79.79,0,0,1-.53-.24ZM60,78.83a.76.76,0,0,1-.58.3A.78.78,0,0,1,59,79c-.73-.48-1.46-1-2.18-1.41A26.73,26.73,0,0,0,48,74.47a26,26,0,0,0-9.9.24c-.54.1-1,.24-1.56.39a.7.7,0,0,1-.87-.49.69.69,0,0,1,.49-.87,15.35,15.35,0,0,1,1.65-.39,28.15,28.15,0,0,1,19.7,3c.78.44,1.56.92,2.33,1.46A.74.74,0,0,1,60,78.83ZM35.83,62.57a.7.7,0,0,1-.68-.53.76.76,0,0,1,.48-.92l.54-.15a43.39,43.39,0,0,1,7-1.46,8,8,0,0,1,1-.09.75.75,0,0,1,.82.63.74.74,0,0,1-.63.82c-.29.05-.63.05-.92.1a46.92,46.92,0,0,0-6.8,1.41l-.48.14A.87.87,0,0,1,35.83,62.57Zm39.32,5.34a.83.83,0,0,1-.64.34,1,1,0,0,1-.38-.09c-.2-.1-.34-.25-.54-.34a38.63,38.63,0,0,0-5.82-3.16.73.73,0,1,1,.63-1.31,47.85,47.85,0,0,1,6,3.25c.19.1.34.24.53.34A.66.66,0,0,1,75.15,67.91Z"/></g></g></svg>